<svg width="25" height="25" viewBox="0 0 25 25" fill="none" xmlns="http://www.w3.org/2000/svg">
<path fill-rule="evenodd" clip-rule="evenodd" d="M18.75 16.4062V11.1979C18.75 8 17.0521 5.32292 14.0625 4.61458V3.90625C14.0625 3.04167 13.3646 2.34375 12.5 2.34375C11.6354 2.34375 10.9375 3.04167 10.9375 3.90625V4.61458C7.95834 5.32292 6.25 7.98958 6.25 11.1979V16.4062L4.16667 18.4896V19.5312H20.8333V18.4896L18.75 16.4062ZM12.5 22.6562C13.6458 22.6562 14.5833 21.7188 14.5833 20.5729H10.4167C10.4167 21.7188 11.3542 22.6562 12.5 22.6562ZM8.33334 17.4479H16.6667V11.1979C16.6667 8.61458 15.0938 6.51042 12.5 6.51042C9.90626 6.51042 8.33334 8.61458 8.33334 11.1979V17.4479Z" fill="#54D1ED"/>
<path fill-rule="evenodd" clip-rule="evenodd" d="M18.75 16.4062V11.1979C18.75 8 17.0521 5.32292 14.0625 4.61458V3.90625C14.0625 3.04167 13.3646 2.34375 12.5 2.34375C11.6354 2.34375 10.9375 3.04167 10.9375 3.90625V4.61458C7.95834 5.32292 6.25 7.98958 6.25 11.1979V16.4062L4.16667 18.4896V19.5312H20.8333V18.4896L18.75 16.4062ZM12.5 22.6562C13.6458 22.6562 14.5833 21.7188 14.5833 20.5729H10.4167C10.4167 21.7188 11.3542 22.6562 12.5 22.6562ZM8.33334 17.4479H16.6667V11.1979C16.6667 8.61458 15.0938 6.51042 12.5 6.51042C9.90626 6.51042 8.33334 8.61458 8.33334 11.1979V17.4479Z" fill="url(#paint0_linear)" fill-opacity="0.4" style="mix-blend-mode:multiply"/>
<defs>
<linearGradient id="paint0_linear" x1="12.5" y1="2.34375" x2="12.5" y2="22.6562" gradientUnits="userSpaceOnUse">
<stop stop-color="#2C52D8" stop-opacity="0"/>
<stop offset="1" stop-color="#2C52D8"/>
</linearGradient>
</defs>
</svg>
