<?xml version="1.0" encoding="UTF-8" standalone="no"?>
<!DOCTYPE svg PUBLIC "-//W3C//DTD SVG 1.1//EN" "http://www.w3.org/Graphics/SVG/1.1/DTD/svg11.dtd">
<svg version="1.1" xmlns="http://www.w3.org/2000/svg" xmlns:xlink="http://www.w3.org/1999/xlink" preserveAspectRatio="xMidYMid meet" viewBox="0 0 50 50" width="50" height="50"><defs><path d="M25 0C11.19 0 0 11.19 0 25C0 38.81 11.19 50 25 50C38.81 50 50 38.81 50 25C50 11.19 38.81 0 25 0Z" id="c3ua2woMgO"></path><path d="M25 0C11.19 0 0 11.19 0 25C0 38.81 11.19 50 25 50C38.81 50 50 38.81 50 25C50 11.19 38.81 0 25 0Z" id="b9kYD58Qd"></path><linearGradient id="gradientcxViUN1s" gradientUnits="userSpaceOnUse" x1="25" y1="0" x2="25" y2="50"><stop style="stop-color: #2c52d8;stop-opacity: 0" offset="0%"></stop><stop style="stop-color: #2c52d8;stop-opacity: 0.4" offset="100%"></stop></linearGradient><path d="M32.75 26.25C32.2 26.25 27.8 26.25 27.25 26.25C26.7 26.25 26.25 26.7 26.25 27.25C26.25 27.8 26.25 32.2 26.25 32.75C26.25 33.3 25.8 33.75 25.25 33.75C25.2 33.75 24.8 33.75 24.75 33.75C24.2 33.75 23.75 33.3 23.75 32.75C23.75 32.2 23.75 27.8 23.75 27.25C23.75 26.7 23.3 26.25 22.75 26.25C22.2 26.25 17.8 26.25 17.25 26.25C16.7 26.25 16.25 25.8 16.25 25.25C16.25 25.2 16.25 24.8 16.25 24.75C16.25 24.2 16.7 23.75 17.25 23.75C17.8 23.75 22.2 23.75 22.75 23.75C23.3 23.75 23.75 23.3 23.75 22.75C23.75 22.2 23.75 17.8 23.75 17.25C23.75 16.7 24.2 16.25 24.75 16.25C24.8 16.25 25.2 16.25 25.25 16.25C25.8 16.25 26.25 16.7 26.25 17.25C26.25 17.8 26.25 22.2 26.25 22.75C26.25 23.3 26.7 23.75 27.25 23.75C27.8 23.75 32.2 23.75 32.75 23.75C33.3 23.75 33.75 24.2 33.75 24.75C33.75 24.78 33.75 24.95 33.75 25.25C33.45 25.92 33.12 26.25 32.75 26.25Z" id="e1Jz6f9rZA"></path></defs><g><g><use xlink:href="#c3ua2woMgO" opacity="1" fill="#54d1ed" fill-opacity="1"></use><g><use xlink:href="#c3ua2woMgO" opacity="1" fill-opacity="0" stroke="#000000" stroke-width="1" stroke-opacity="0"></use></g></g><g><use xlink:href="#b9kYD58Qd" opacity="1" fill="url(#gradientcxViUN1s)"></use><g><use xlink:href="#b9kYD58Qd" opacity="1" fill-opacity="0" stroke="#000000" stroke-width="1" stroke-opacity="0"></use></g></g><g><use xlink:href="#e1Jz6f9rZA" opacity="1" fill="#faf9fd" fill-opacity="1"></use><g><use xlink:href="#e1Jz6f9rZA" opacity="1" fill-opacity="0" stroke="#000000" stroke-width="1" stroke-opacity="0"></use></g></g></g></svg>